# xmcd
#
# Track frame offsets: 
#        150
#        18095
#        36960
#        57585
#        75742
#        101667
#        128625
#        150000
#        169550
#        196537
#        211305
#        224167
#        245082
#        283722
#
# Disc length: 4039 seconds
#
# Revision: 2
# Processed by: cddbd v1.5.2PL0 Copyright (c) Steve Scherf et al.
# Submitted via: ExactAudioCopyFreeDBPlugin 1.0
#
DISCID=bb0fc50e
DTITLE=Various Artist - Black Magic 3
DYEAR=1995
DGENRE=Soul
TTITLE0=Lou Rawls - Lady Love
TTITLE1=O' Jays - Brandy
TTITLE2=Champaign - How 'Bout Us
TTITLE3=Barry White - Never, Never Gonna Give Ya Up
TTITLE4=Peaches and Herb - Reunited
TTITLE5=Imagination - Body Talk
TTITLE6=Stylist feat. Arrion Love and Russel Tomskin jr - You Make Me Fe
TTITLE6=el Brandnew
TTITLE7=Kool and The Gang - Joanna
TTITLE8=Teddy Pendergrass - Turn Off The Lights
TTITLE9=Real Thing - You To Me Are Everything
TTITLE10=Isley Brothers - This Old Heart Of Mine (Is Weak For You)
TTITLE11=Earth, Wind and Fire - Fantasy
TTITLE12=Maze feat. Frankie Beverly - Joy And Pain
TTITLE13=Bill Withers - Lean On Me
EXTD=
EXTT0=
EXTT1=
EXTT2=
EXTT3=
EXTT4=
EXTT5=
EXTT6=
EXTT7=
EXTT8=
EXTT9=
EXTT10=
EXTT11=
EXTT12=
EXTT13=
PLAYORDER=
